custom-analysis
version=1
nRows=12
nColumns=42
inDegrees=no

This file contains tibia displacement and acting force.

Units are S.I. units (seconds, meters, Newtons, ...)
Angles are in degrees.

endheader
time	APT	SIT	knee_angle	aACL_R_force	pACL_R_force	aPCL_R_force	pPCL_R_force	aMCL_R_force	mMCL_R_force	pMCL_R_force	aLCL_R_force	mLCL_R_force	pLCL_R_force	aACL_R_length	pACL_R_length	aPCL_R_length	pPCL_R_length	aMCL_R_length	mMCL_R_length	pMCL_R_length	aLCL_R_length	mLCL_R_length	pLCL_R_length	aACL_R_strain	pACL_R_strain	aPCL_R_strain	pPCL_R_strain	aMCL_R_strain	mMCL_R_strain	pMCL_R_strain	aLCL_R_strain	mLCL_R_strain	pLCL_R_strain	femur_lat_meniscii_force_r	femur_lat_meniscii_torque_r	femur_med_meniscii_force_r	femur_med_meniscii_torque_r	femur_lat_tibia_force_r	femur_lat_tibia_torque_r	femur_med_tibia_force_r	femur_med_tibia_torque_r
      0.48208251	      0.00655943	     -0.00069403	     60.00037120	     55.85743386	      9.24466283	    331.91739986	     15.17722920	     25.61757289	      1.19347084	      0.00000000	      0.00000000	      0.00000000	      0.00000000	      0.03445437	      0.02668843	      0.03359595	      0.03044482	      0.06157810	      0.06028378	      0.05677529	      0.05254472	      0.04764457	      0.04263153	      0.08670016	      0.03208701	      0.08041894	      0.01186582	      0.06119730	      0.00819952	     -0.06508882	     -0.06131925	     -0.15401717	     -0.18553052	    117.83387365	     43.62718244	    210.32858676	     83.35852356	      0.00000000	      0.00000000	    131.65280249	      2.02895619
      0.48301110	      0.00655849	     -0.00069289	     60.00037120	     55.77248079	      9.17731280	    331.67451426	     14.97926997	     25.56318910	      1.12867120	      0.00000000	      0.00000000	      0.00000000	      0.00000000	      0.03445309	      0.02668715	      0.03359488	      0.03044409	      0.06157889	      0.06028468	      0.05677617	      0.05254046	      0.04764026	      0.04262729	      0.08665983	      0.03203741	      0.08038461	      0.01184173	      0.06121093	      0.00821456	     -0.06507421	     -0.06139531	     -0.15409370	     -0.18561157	    117.71440680	     43.58860920	    210.30764330	     83.35114559	      0.00000000	      0.00000000	    131.46465245	      2.02553189
      0.48443219	      0.00655707	     -0.00069103	     60.00037120	     55.67629738	      9.11476938	    331.35684312	     14.86417258	     25.61188857	      1.16591354	      0.00000000	      0.00000000	      0.00000000	      0.00000000	      0.03445106	      0.02668509	      0.03359313	      0.03044287	      0.06158006	      0.06028602	      0.05677750	      0.05253371	      0.04763342	      0.04262056	      0.08659555	      0.03195803	      0.08032808	      0.01180121	      0.06123117	      0.00823699	     -0.06505242	     -0.06151599	     -0.15421511	     -0.18574023	    118.27666067	     43.80461698	    210.17013074	     83.29418094	      0.00000000	      0.00000000	    131.19338770	      2.02047734
      0.48513177	      0.00655635	     -0.00069013	     60.00037120	     55.62994478	      9.08445225	    331.21108189	     14.82958658	     25.65060069	      1.19866103	      0.00000000	      0.00000000	      0.00000000	      0.00000000	      0.03445004	      0.02668407	      0.03359228	      0.03044229	      0.06158069	      0.06028673	      0.05677820	      0.05253035	      0.04763002	      0.04261721	      0.08656367	      0.03191862	      0.08030079	      0.01178200	      0.06124194	      0.00824885	     -0.06504089	     -0.06157601	     -0.15427550	     -0.18580421	    118.59196913	     43.91926189	    210.08219815	     83.25882880	      0.00000000	      0.00000000	    131.03476224	      2.01758242
      0.48673812	      0.00655467	     -0.00068814	     60.00037120	     55.54606082	      9.04036510	    330.93191238	     14.86117658	     25.81052142	      1.34473084	      0.00000000	      0.00000000	      0.00000000	      0.00000000	      0.03444772	      0.02668173	      0.03359042	      0.03044107	      0.06158228	      0.06028853	      0.05677998	      0.05252260	      0.04762218	      0.04260949	      0.08649043	      0.03182784	      0.08024109	      0.01174142	      0.06126949	      0.00827892	     -0.06501157	     -0.06171436	     -0.15441471	     -0.18595163	    119.26368373	     44.17352592	    209.80312353	     83.14549198	      0.00000000	      0.00000000	    130.56681188	      2.00907045
      0.49007448	      0.00655109	     -0.00068416	     60.00037120	     55.37012222	      8.94681305	    330.39698236	     14.97065238	     26.16318181	      1.66172276	      0.00000000	      0.00000000	      0.00000000	      0.00000000	      0.03444275	      0.02667666	      0.03358677	      0.03043880	      0.06158612	      0.06029280	      0.05678423	      0.05250621	      0.04760558	      0.04259316	      0.08633360	      0.03163186	      0.08012380	      0.01166596	      0.06133560	      0.00835039	     -0.06494160	     -0.06200717	     -0.15470937	     -0.18626352	    120.58413591	     44.66784054	    209.15380089	     82.88508874	      0.00000000	      0.00000000	    129.34503777	      1.98648524
      0.49341084	      0.00654731	     -0.00068104	     60.00037120	     55.03292009	      8.66401860	    329.68908150	     14.30115368	     25.92927551	      1.36014020	      0.00000000	      0.00000000	      0.00000000	      0.00000000	      0.03443803	      0.02667183	      0.03358402	      0.03043749	      0.06159119	      0.06029835	      0.05678976	      0.05249013	      0.04758929	      0.04257716	      0.08618479	      0.03144503	      0.08003521	      0.01162236	      0.06142303	      0.00844317	     -0.06485043	     -0.06229453	     -0.15499871	     -0.18656936	    121.74023103	     45.11074275	    208.87821600	     82.76669104	      0.00000000	      0.00000000	    127.59141526	      1.95704102
      0.49374447	      0.00654698	     -0.00068056	     60.00037120	     55.02697982	      8.66869842	    329.63875897	     14.35259529	     25.99930154	      1.42712703	      0.00000000	      0.00000000	      0.00000000	      0.00000000	      0.03443746	      0.02667123	      0.03358357	      0.03043719	      0.06159157	      0.06029877	      0.05679018	      0.05248831	      0.04758746	      0.04257535	      0.08616684	      0.03142202	      0.08002076	      0.01161236	      0.06142954	      0.00845021	     -0.06484352	     -0.06232690	     -0.15503127	     -0.18660387	    121.88006647	     45.16102927	    208.79458294	     82.73327112	      0.00000000	      0.00000000	    127.49621921	      1.95536577
      0.49541266	      0.00654529	     -0.00067848	     60.00037120	     54.97838125	      8.66848612	    329.39738905	     14.51701726	     26.26304011	      1.66953990	      0.00000000	      0.00000000	      0.00000000	      0.00000000	      0.03443480	      0.02666844	      0.03358164	      0.03043601	      0.06159383	      0.06030125	      0.05679266	      0.05247951	      0.04757854	      0.04256657	      0.08608276	      0.03131415	      0.07995882	      0.01157328	      0.06146845	      0.00849174	     -0.06480273	     -0.06248419	     -0.15518953	     -0.18677152	    122.57593651	     45.42064597	    208.46444172	     82.60052317	      0.00000000	      0.00000000	    126.81670593	      1.94380387
      0.49708084	      0.00654353	     -0.00067672	     60.00037120	     54.88620074	      8.62104130	    329.15806530	     14.56968155	     26.40677530	      1.78733726	      0.00000000	      0.00000000	      0.00000000	      0.00000000	      0.03443228	      0.02666581	      0.03358003	      0.03043517	      0.06159646	      0.06030412	      0.05679553	      0.05247090	      0.04756982	      0.04255800	      0.08600328	      0.03121228	      0.07990705	      0.01154514	      0.06151385	      0.00853975	     -0.06475554	     -0.06263797	     -0.15534433	     -0.18693535	    123.28311132	     45.69118804	    208.21543196	     82.50813796	      0.00000000	      0.00000000	    125.93084054	      1.92939047
      0.50160767	      0.00653918	     -0.00067177	     60.00037120	     54.39793033	      8.18809914	    328.09637107	     13.71508316	     26.20756842	      1.48221606	      0.00000000	      0.00000000	      0.00000000	      0.00000000	      0.03442509	      0.02665811	      0.03357549	      0.03043276	      0.06160404	      0.06031233	      0.05680374	      0.05244687	      0.04754549	      0.04253405	      0.08577645	      0.03091450	      0.07976078	      0.01146511	      0.06164433	      0.00867695	     -0.06462031	     -0.06306730	     -0.15577637	     -0.18739292	    123.94438529	     45.84354005	    208.50821056	     82.62858836	      0.00000000	      0.00000000	    123.61133173	      1.89012938
      0.50613450	      0.00653697	     -0.00066372	     60.00037120	     54.12728166	      8.01581770	    327.12436257	     14.21494779	     27.20058481	      2.40646894	      0.00000000	      0.00000000	      0.00000000	      0.00000000	      0.03441487	      0.02664651	      0.03356799	      0.03042753	      0.06160998	      0.06031879	      0.05681032	      0.05241925	      0.04751759	      0.04250650	      0.08545410	      0.03046603	      0.07951964	      0.01129121	      0.06174675	      0.00878506	     -0.06451196	     -0.06356069	     -0.15627175	     -0.18791927	    124.33013207	     45.94901179	    207.63714031	     82.28683162	      0.00000000	      0.00000000	    122.77061090	      1.87783620
